<?xml version="1.0" standalone="no"?><!DOCTYPE svg PUBLIC "-//W3C//DTD SVG 1.1//EN" "http://www.w3.org/Graphics/SVG/1.1/DTD/svg11.dtd"><svg class="icon" width="200px" height="200.00px" viewBox="0 0 1024 1024" version="1.1" xmlns="http://www.w3.org/2000/svg"><path d="M512 512m-512 0a512 512 0 1 0 1024 0 512 512 0 1 0-1024 0Z" fill="#F41F4D" /><path d="M472.554086 320.747082m37.85214 0l3.187548 0q37.85214 0 37.85214 37.85214l0 396.849805q0 37.85214-37.85214 37.85214l-3.187548 0q-37.85214 0-37.85214-37.85214l0-396.849805q0-37.85214 37.85214-37.85214Z" fill="#ffffff" /><path d="M512.078485 214.400848m26.765505 26.765504l2.253938 2.253938q26.765505 26.765505 0 53.53101l-238.91735 238.917349q-26.765505 26.765505-53.531009 0l-2.253938-2.253937q-26.765505-26.765505 0-53.53101l238.91735-238.91735q26.765505-26.765505 53.531009 0Z" fill="#ffffff" /><path d="M456.254098 270.071096m26.765505-26.765505l2.253937-2.253938q26.765505-26.765505 53.53101 0l238.91735 238.91735q26.765505 26.765505 0 53.53101l-2.253938 2.253937q-26.765505 26.765505-53.53101 0l-238.917349-238.91735q-26.765505-26.765505 0-53.531009Z" fill="#ffffff" /></svg>